<?xml version="1.0" standalone="no"?>
<!DOCTYPE svg PUBLIC "-//W3C//DTD SVG 20010904//EN"
 "http://www.w3.org/TR/2001/REC-SVG-20010904/DTD/svg10.dtd">
<svg version="1.0" xmlns="http://www.w3.org/2000/svg"
 width="311.000000pt" height="307.000000pt" viewBox="0 0 311.000000 307.000000"
 preserveAspectRatio="xMidYMid meet">
<metadata>
Created by potrace 1.16, written by Peter Selinger 2001-2019
</metadata>
<g transform="translate(0.000000,307.000000) scale(0.100000,-0.100000)"
fill="#000000" stroke="none">
<path d="M1351 2592 c-25 -27 -71 -74 -101 -106 -85 -89 -116 -108 -325 -199
-53 -24 -109 -67 -126 -99 -8 -14 21 -3 108 42 306 158 532 270 547 270 9 0
57 -20 106 -45 112 -56 220 -99 312 -125 39 -11 72 -21 74 -23 9 -9 -28 -120
-65 -197 -26 -54 -41 -98 -41 -123 0 -48 -14 -45 -57 12 -39 50 -44 98 -13
126 11 10 20 23 20 30 0 6 -9 21 -20 33 -11 12 -20 26 -20 32 0 5 -13 10 -29
10 -16 0 -36 7 -45 15 -8 8 -16 15 -18 15 -2 0 -2 -44 0 -98 4 -88 1 -106 -21
-163 l-26 -64 29 33 c27 29 30 39 30 100 1 51 3 63 11 49 16 -27 22 -118 10
-149 -5 -15 -21 -34 -35 -43 -53 -35 -248 -94 -426 -130 -320 -64 -380 -85
-419 -149 -35 -56 -23 -64 20 -13 23 27 49 47 61 47 19 0 19 0 -1 -27 -38 -48
-11 -38 44 17 l55 55 163 7 c133 5 183 12 282 37 66 17 136 31 156 31 74 0
193 -112 219 -206 24 -85 -8 -161 -112 -260 -129 -125 -227 -168 -650 -289
-412 -119 -531 -177 -694 -339 -102 -101 -130 -143 -177 -263 -32 -84 -32
-238 1 -303 12 -25 20 -36 17 -26 -3 10 -10 48 -14 82 -41 289 189 573 596
735 43 17 186 62 318 100 371 108 493 168 635 309 49 49 99 110 118 145 18 33
30 49 26 35 -9 -36 -51 -107 -101 -171 -79 -101 -207 -192 -418 -297 -174 -87
-226 -132 -79 -69 116 50 240 114 314 162 175 113 298 276 337 446 8 38 17 68
19 67 8 -9 -18 -145 -38 -191 -76 -184 -208 -308 -543 -515 -114 -70 -245
-159 -245 -166 0 -13 438 234 509 287 202 149 314 335 340 570 6 47 17 100 25
116 24 45 20 69 -18 104 -38 36 -56 66 -56 96 0 11 18 74 39 138 37 110 70
267 59 278 -3 3 -54 10 -114 15 -60 6 -125 15 -145 20 -50 14 -109 59 -164
126 -66 81 -99 104 -153 104 -41 0 -49 -5 -91 -48z"/>
<path d="M859 2471 c65 -23 101 -49 121 -87 8 -16 16 -31 18 -33 5 -10 171 82
198 110 l28 29 -210 0 -209 -1 54 -18z"/>
<path d="M1715 2480 l-30 -7 49 -22 c35 -17 77 -25 160 -31 138 -9 156 -17
156 -69 0 -48 7 -51 155 -51 115 0 142 -7 132 -34 -5 -13 -22 -16 -78 -16
l-71 0 40 -40 c78 -75 112 -175 112 -324 0 -56 -7 -130 -15 -165 -38 -159
-144 -282 -283 -327 -61 -19 -66 -23 -82 -65 -9 -24 -25 -61 -34 -82 l-19 -38
133 -175 c207 -273 309 -371 456 -443 123 -60 311 -94 399 -73 l40 10 -35 1
c-93 4 -281 110 -427 242 -123 111 -215 221 -367 439 l-88 125 66 16 c320 81
518 393 441 694 -61 240 -243 397 -503 435 -76 11 -262 11 -307 0z"/>
<path d="M1030 2276 c-13 -17 0 -18 241 -14 249 3 255 3 232 -15 -34 -27 -43
-50 -53 -134 -9 -80 -29 -120 -68 -134 -29 -11 -66 23 -59 52 4 17 3 18 -9 8
-33 -27 -4 -99 40 -99 53 0 98 55 146 177 30 81 71 132 120 152 21 9 16 10
-35 10 -33 0 -168 3 -300 7 -221 6 -241 5 -255 -10z"/>
<path d="M994 2238 c-2 -3 -1 -108 3 -232 5 -192 8 -226 21 -221 8 3 45 10 82
16 37 7 72 14 77 18 4 3 7 99 5 213 l-3 207 -91 3 c-49 2 -92 0 -94 -4z"/>
<path d="M1599 2235 c-33 -18 -50 -44 -78 -120 -58 -156 -116 -212 -212 -203
-54 6 -62 -8 -17 -29 20 -10 34 -10 71 1 92 28 133 77 188 224 18 49 40 87 59
104 44 40 39 50 -11 23z"/>
<path d="M1469 1751 c-53 -17 -70 -31 -67 -58 4 -31 28 -49 54 -39 18 8 18 9
-3 17 -25 9 -30 28 -11 47 32 32 78 -4 78 -60 0 -49 -26 -78 -77 -85 -39 -5
-46 -2 -77 29 -24 24 -37 48 -42 77 -7 43 -18 52 -28 25 -11 -28 14 -96 46
-125 52 -49 118 -50 170 -1 37 34 43 72 23 132 -17 51 -21 54 -66 41z"/>
<path d="M1013 1693 c-10 -3 -13 -66 -13 -264 0 -199 3 -258 12 -253 6 4 48
20 92 34 l81 27 3 232 2 231 -82 -1 c-46 0 -89 -3 -95 -6z"/>
<path d="M1945 1443 c-31 -83 -103 -216 -154 -283 -27 -36 -114 -126 -193
-201 -87 -83 -156 -158 -176 -191 -35 -60 -56 -151 -41 -181 17 -30 24 -18 25
42 3 109 68 198 285 391 118 105 176 174 215 255 29 61 69 203 60 212 -2 2
-11 -18 -21 -44z"/>
<path d="M1605 1304 c-16 -8 -37 -22 -45 -29 -40 -36 -158 -70 -474 -135 -426
-88 -734 -200 -848 -310 -54 -52 -65 -100 -29 -120 30 -15 38 -12 13 6 -52 36
-12 86 125 157 192 98 376 157 743 238 348 77 401 93 515 166 62 39 62 60 0
27z"/>
<path d="M1088 1003 l-88 -26 0 -70 0 -70 43 39 c23 22 66 54 95 73 39 25 52
39 52 57 0 29 6 29 -102 -3z"/>
<path d="M810 894 c-180 -92 -252 -176 -220 -255 22 -51 91 -75 141 -49 30 17
22 29 -11 17 -61 -23 -121 27 -106 89 12 46 101 124 201 176 50 25 105 49 123
53 17 3 32 11 32 16 0 22 -57 5 -160 -47z"/>
<path d="M1115 887 c-38 -24 -80 -50 -92 -57 -19 -12 -23 -24 -23 -67 l0 -53
81 66 c44 35 89 70 100 77 18 11 29 77 12 77 -5 0 -39 -20 -78 -43z"/>
<path d="M1112 741 c-45 -35 -94 -78 -108 -97 -25 -32 -131 -94 -163 -94 -9 0
-23 -5 -31 -10 -10 -6 84 -10 274 -10 167 0 286 4 281 9 -6 5 -32 16 -60 25
-91 30 -99 41 -105 147 l-5 92 -83 -62z"/>
</g>
</svg>
