<?xml version="1.0" encoding="UTF-8"?>
<!DOCTYPE svg PUBLIC "-//W3C//DTD SVG 1.1//EN" "http://www.w3.org/Graphics/SVG/1.1/DTD/svg11.dtd">
<!-- Creator: CorelDRAW 2019 (64-Bit) -->
<svg xmlns="http://www.w3.org/2000/svg" xml:space="preserve" width="113px" height="97px" version="1.1" style="shape-rendering:geometricPrecision; text-rendering:geometricPrecision; image-rendering:optimizeQuality; fill-rule:evenodd; clip-rule:evenodd"
viewBox="0 0 79.2 67.94"
 xmlns:xlink="http://www.w3.org/1999/xlink">
 <defs>
  <style type="text/css">
   <![CDATA[
    .fil0 {fill:#FEFEFE}
   ]]>
  </style>
 </defs>
 <g id="Layer_x0020_1">
  <metadata id="CorelCorpID_0Corel-Layer"/>
  <g id="_1256522928">
   <path class="fil0" d="M59.54 47.49c0,-3.29 2.71,-6.11 5.94,-6.11 3.59,0 6.1,2.57 6.1,6.44 0,4.37 -6.03,7.8 -10.19,3.92 -0.87,-0.82 -1.85,-2.62 -1.85,-4.25zm-7.91 -28.54c0,-0.97 0.86,-1.6 1.64,-1.82l5.62 -1.48c3.6,-0.95 4.4,-1.4 5.27,2.15l2.02 7.55c1.64,6.01 1.74,5.07 -4.59,6.87 -7.48,2.12 -5.77,2.62 -9.17,-9.77 -0.24,-0.86 -0.79,-2.44 -0.79,-3.5zm-5.45 -8.41c0.09,1.05 10.77,40.14 11.98,44.93l1.71 6.53c0.78,-0.02 12.19,-3.14 13.49,-3.5l4.49 -1.28c-0.33,-0.7 -0.61,-2.2 -0.86,-3.1 -3.17,-11.59 -6.22,-23.82 -9.46,-35.24l-2.58 -9.63c-0.21,-0.83 -0.77,-2.39 -0.79,-3.33 -1.63,0.04 -16.63,4.59 -17.98,4.62z"/>
   <path class="fil0" d="M9.24 42.87c1.81,0 3.14,0.73 4.08,1.69 3.85,3.88 1.56,10.35 -4.41,10.35 -1.69,0 -3.25,-0.94 -4.09,-1.85 -3.65,-3.95 -0.8,-10.19 4.42,-10.19zm4.45 -9.73l-9.07 0c-0.91,0 -1.65,-0.96 -1.65,-1.82l0 -13.03c0,-1.04 1.05,-1.81 2.14,-1.81l8.42 0c0.99,0 1.97,0.98 1.97,1.98l0 12.53c0,1.15 -0.69,2.15 -1.81,2.15zm-13.69 28.53l18.47 0 0 -53.28 -18.47 0 0 53.28z"/>
   <path class="fil0" d="M25.57 48.97c0,-5.44 6.49,-7.99 10.1,-4.5 3.45,3.33 1.94,8.43 -1.43,9.88 -4.46,1.92 -8.67,-1.37 -8.67,-5.38zm10.55 -15.83l-9.07 0c-0.83,0 -1.65,-0.82 -1.65,-1.65l0 -13.2c0,-1.11 1,-1.81 2.15,-1.81l8.41 0c1.17,0 1.98,1.07 1.98,2.31l0 12.2c0,1.09 -0.77,2.15 -1.82,2.15zm-13.69 28.53l18.48 0 0 -53.28 -18.48 0 0 53.28z"/>
   <path class="fil0" d="M22.43 3.12l0 3.3 17.98 0c0.79,0 0.5,-1.11 0.5,-3.14 0,-0.98 -0.67,-1.32 -1.65,-1.32l-15.51 0c-0.76,0 -1.32,0.37 -1.32,1.16z"/>
   <path class="fil0" d="M0 2.95l0 3.47 18.47 0c0,-3.03 0.48,-4.46 -1.65,-4.46l-15.17 0c-0.74,0 -1.65,0.31 -1.65,0.99z"/>
   <path class="fil0" d="M45.69 8.72c0.39,-0.18 1.73,-0.5 2.18,-0.62l15.63 -4.16c-0.05,-0.61 -0.38,-1.52 -0.56,-2.25 -0.62,-2.59 -1.05,-1.78 -6.36,-0.39l-7.96 2.11c-2.87,0.74 -4.19,0.74 -3.7,2.6 0.21,0.79 0.49,2.13 0.77,2.71z"/>
   <path class="fil0" d="M60.53 63.98c0.02,0.71 0.36,1.54 0.53,2.28 0.62,2.62 1.32,1.62 5.48,0.59l8.71 -2.34c5.04,-1.39 4.22,-0.48 3.1,-5.31l-17.82 4.78z"/>
   <path class="fil0" d="M22.43 67.11c0,0.54 0.6,0.83 1.16,0.83l16.33 0c1.39,0 0.99,-2.72 0.99,-4.29l-18.48 0 0 3.46z"/>
   <path class="fil0" d="M0 66.78c0,0.77 0.38,1.16 1.15,1.16l16.33 0c1.4,0 0.99,-2.72 0.99,-4.29l-18.47 0 0 3.13z"/>
   <path class="fil0" d="M61.52 47.49c0,0.99 0.66,2.23 1.19,2.76 2.4,2.4 6.89,1.08 6.89,-3.09 0,-4.05 -6.04,-5.26 -7.69,-1.43 -0.12,0.28 -0.39,1.45 -0.39,1.76z"/>
   <path class="fil0" d="M27.55 48.97c0,1.97 1.63,3.96 4.28,3.96 3.29,0 5.17,-4.5 2.61,-6.89 -1.24,-1.17 -2.77,-1.48 -4.41,-0.85 -0.34,0.13 -1,0.58 -1.28,0.86 -0.53,0.53 -1.2,1.93 -1.2,2.92z"/>
   <path class="fil0" d="M9.24 52.93c3.68,0 5.25,-4.55 2.77,-6.89 -3.84,-3.61 -9.2,1.83 -5.7,5.69 0.6,0.66 1.71,1.2 2.93,1.2z"/>
   <path class="fil0" d="M4.45 29.34c0,0.85 0.77,1.16 1.65,1.16l5.94 0c3.13,0 1.82,-2.31 0.99,-2.31l-7.42 0c-0.77,0 -1.16,0.38 -1.16,1.15z"/>
   <path class="fil0" d="M26.89 29.34c0,0.85 0.76,1.16 1.65,1.16l5.93 0c2.99,0 2.13,-2.31 0.66,-2.31l-7.09 0c-0.77,0 -1.15,0.38 -1.15,1.15z"/>
   <path class="fil0" d="M53.61 20.6c0,2.3 2.04,1 5.31,0.2 1.85,-0.46 3.92,-0.71 3.92,-1.85 0,-2.09 -2.86,-0.78 -5.33,-0.06 -1.28,0.37 -3.9,0.72 -3.9,1.71z"/>
   <path class="fil0" d="M54.76 24.89c0,2.18 1.97,1.2 5.34,0.22 0.8,-0.23 1.4,-0.37 2.22,-0.58 0.88,-0.24 1.68,-0.38 1.68,-1.29 0,-2.1 -2.64,-0.69 -5.31,-0.03 -1.3,0.32 -3.93,0.76 -3.93,1.68z"/>
   <path class="fil0" d="M55.91 29.18c0,2.19 1.98,1.19 5.35,0.23 1.47,-0.42 3.89,-0.6 3.89,-1.88 0,-1.91 -2.62,-0.71 -4.52,-0.23 -0.9,0.22 -1.78,0.46 -2.59,0.7 -0.72,0.22 -2.13,0.32 -2.13,1.18z"/>
   <path class="fil0" d="M4.45 24.89c0,0.61 0.43,0.99 0.83,0.99l7.92 0c1.16,0 0.99,-2.15 -0.17,-2.15l-7.42 0c-0.77,0 -1.16,0.39 -1.16,1.16z"/>
   <path class="fil0" d="M26.89 24.56c0,0.54 0.06,1.32 0.82,1.32l7.92 0c1.05,0 1.24,-2.15 -0.5,-2.15l-7.09 0c-0.56,0 -1.15,0.3 -1.15,0.83z"/>
   <path class="fil0" d="M26.89 20.11c0,0.54 0.06,1.31 0.82,1.31l7.59 0c1.83,0 1.12,-2.14 0.16,-2.14l-7.42 0c-0.56,0 -1.15,0.29 -1.15,0.83z"/>
   <path class="fil0" d="M4.45 20.44c0,0.6 0.43,0.98 0.83,0.98l7.59 0c1.77,0 1.21,-2.14 0.16,-2.14l-7.42 0c-0.77,0 -1.16,0.39 -1.16,1.16z"/>
  </g>
 </g>
</svg>
